# WaveFront *.obj file (generated by Autodesk ATF)

mtllib ArrowNew.mtl

g Solid1

v -2.094000 0.000000 0.000000
v -2.094000 1.375000 0.000000
v -1.000000 0.000000 -3.542998
v -1.000000 0.000000 0.000000
v -1.000000 1.375000 -3.542998
v -1.000000 1.375000 0.000000
v 0.000000 0.000000 3.000000
v 0.000000 1.375000 3.000000
v 1.000000 0.000000 -3.542998
v 1.000000 0.000000 0.000000
v 1.000000 1.375000 -3.542998
v 1.000000 1.375000 0.000000
v 2.094000 0.000000 0.000000
v 2.094000 1.375000 0.000000
vt 0.000000 0.000000 0.000000
vt 2.778760 0.000000 0.000000
vt 2.778760 3.492500 0.000000
vt 0.000000 3.492500 0.000000
vt 0.000000 0.000000 0.000000
vt 8.999216 0.000000 0.000000
vt 8.999216 3.492500 0.000000
vt 0.000000 3.492500 0.000000
vt 0.000000 0.000000 0.000000
vt 5.080000 0.000000 0.000000
vt 5.080000 3.492500 0.000000
vt 0.000000 3.492500 0.000000
vt 0.000000 0.000000 0.000000
vt 8.999216 0.000000 0.000000
vt 8.999216 3.492500 0.000000
vt 0.000000 3.492500 0.000000
vt 0.000000 0.000000 0.000000
vt 2.778760 0.000000 0.000000
vt 2.778760 3.492500 0.000000
vt 0.000000 3.492500 0.000000
vt 0.000000 0.000000 0.000000
vt 9.292665 0.000000 0.000000
vt 9.292665 3.492500 0.000000
vt 0.000000 3.492500 0.000000
vt 0.000000 0.000000 0.000000
vt 9.292665 0.000000 0.000000
vt 9.292665 3.492500 0.000000
vt 0.000000 3.492500 0.000000
vt 0.689608 -5.318760 0.000000
vt 8.309608 0.000000 0.000000
vt 0.689608 5.318760 0.000000
vt 0.689608 2.540000 0.000000
vt -8.309608 2.540000 0.000000
vt -8.309608 -2.540000 0.000000
vt 0.689608 -2.540000 0.000000
vt -8.309608 0.000000 0.000000
vt -0.689608 -5.318760 0.000000
vt -0.689608 -2.540000 0.000000
vt 8.309608 -2.540000 0.000000
vt 8.309608 2.540000 0.000000
vt -0.689608 2.540000 0.000000
vt -0.689608 5.318760 0.000000
vn 0.000000 0.000000 -2.540000
vn 0.000000 0.000000 -2.540000
vn 0.000000 0.000000 -2.540000
vn 0.000000 0.000000 -2.540000
vn -2.540000 0.000000 0.000000
vn -2.540000 0.000000 0.000000
vn -2.540000 0.000000 0.000000
vn -2.540000 0.000000 0.000000
vn 0.000000 0.000000 -2.540000
vn 0.000000 0.000000 -2.540000
vn 0.000000 0.000000 -2.540000
vn 0.000000 0.000000 -2.540000
vn 2.540000 0.000000 0.000000
vn 2.540000 0.000000 0.000000
vn 2.540000 0.000000 0.000000
vn 2.540000 0.000000 0.000000
vn 0.000000 0.000000 -2.540000
vn 0.000000 0.000000 -2.540000
vn 0.000000 0.000000 -2.540000
vn 0.000000 0.000000 -2.540000
vn 2.082804 0.000000 1.453797
vn 2.082804 0.000000 1.453797
vn 2.082804 0.000000 1.453797
vn 2.082804 0.000000 1.453797
vn -2.082804 0.000000 1.453797
vn -2.082804 0.000000 1.453797
vn -2.082804 0.000000 1.453797
vn -2.082804 0.000000 1.453797
vn 0.000000 2.540000 0.000000
vn 0.000000 2.540000 0.000000
vn 0.000000 2.540000 0.000000
vn 0.000000 2.540000 0.000000
vn 0.000000 2.540000 0.000000
vn 0.000000 2.540000 0.000000
vn 0.000000 2.540000 0.000000
vn 0.000000 -2.540000 0.000000
vn 0.000000 -2.540000 0.000000
vn 0.000000 -2.540000 0.000000
vn 0.000000 -2.540000 0.000000
vn 0.000000 -2.540000 0.000000
vn 0.000000 -2.540000 0.000000
vn 0.000000 -2.540000 0.000000
usemtl 191,191,191
f 4/1/1 1/2/2 6/4/4
f 6/4/4 1/2/2 2/3/3
f 3/5/5 4/6/6 5/8/8
f 5/8/8 4/6/6 6/7/7
f 9/9/9 3/10/10 11/12/12
f 11/12/12 3/10/10 5/11/11
f 10/13/13 9/14/14 12/16/16
f 12/16/16 9/14/14 11/15/15
f 13/17/17 10/18/18 14/20/20
f 14/20/20 10/18/18 12/19/19
f 7/21/21 13/22/22 8/24/24
f 8/24/24 13/22/22 14/23/23
f 1/25/25 7/26/26 2/28/28
f 2/28/28 7/26/26 8/27/27
f 2/29/29 8/30/30 6/35/35
f 6/35/35 8/30/30 12/32/32
f 6/35/35 12/32/32 5/34/34
f 5/34/34 12/32/32 11/33/33
f 8/30/30 14/31/31 12/32/32
f 1/37/37 4/38/38 7/36/36
f 7/36/36 4/38/38 10/41/41
f 7/36/36 10/41/41 13/42/42
f 4/38/38 3/39/39 10/41/41
f 10/41/41 3/39/39 9/40/40

# 14 vertices
# 42 texture params
# 42 normals
# 24 facets

# 1 groups
